{"title":"300 DvdRip","uid":8042423,"size":1482519715,"categoryP":"video","categoryS":"movies","magnet":"?xt=urn:btih:c83f4a91a21c8b832733eefbdcf83033510ca41a&amp;dn=300+DvdRip&amp;tr=udp%3A%2F%2Ftracker.openbittorrent.com%3A80&amp;tr=udp%3A%2F%2Fopen.demonii.com%3A1337&amp;tr=udp%3A%2F%2Ftracker.coppersurfer.tk%3A6969&amp;tr=udp%3A%2F%2Fexodus.desync.com%3A6969","seeders":1,"leechers":0,"uploader":"Armani-1","files":5,"time":1358665742,"description":" &lt;a href=&quot;http://www.piczend.com/image/1358661650_vlcsnap-2013-01-19-22h59m57s119.png&quot; rel=&quot;nofollow&quot; target=&quot;_NEW&quot;&gt;http://www.piczend.com/image/1358661650_vlcsnap-2013-01-19-22h59m57s119.png&lt;/a&gt;\n &lt;a href=&quot;\nhttp://www.piczend.com/image/1358661643_vlcsnap-2013-01-19-23h00m01s159.png&quot; rel=&quot;nofollow&quot; target=&quot;_NEW&quot;&gt;\nhttp://www.piczend.com/image/1358661643_vlcsnap-2013-01-19-23h00m01s159.png&lt;/a&gt;\n &lt;a href=&quot;\nhttp://www.piczend.com/image/1358661658_vlcsnap-2013-01-19-23h00m05s199.png&quot; rel=&quot;nofollow&quot; target=&quot;_NEW&quot;&gt;\nhttp://www.piczend.com/image/1358661658_vlcsnap-2013-01-19-23h00m05s199.png&lt;/a&gt;\n &lt;a href=&quot;\nhttp://www.piczend.com/image/1358661654_vlcsnap-2013-01-19-23h00m10s249.png&quot; rel=&quot;nofollow&quot; target=&quot;_NEW&quot;&gt;\nhttp://www.piczend.com/image/1358661654_vlcsnap-2013-01-19-23h00m10s249.png&lt;/a&gt;\n &lt;a href=&quot;\nhttp://www.piczend.com/image/1358661661_vlcsnap-2013-01-19-23h00m14s33.png&quot; rel=&quot;nofollow&quot; target=&quot;_NEW&quot;&gt;\nhttp://www.piczend.com/image/1358661661_vlcsnap-2013-01-19-23h00m14s33.png&lt;/a&gt;\n &lt;a href=&quot;\nhttp://www.piczend.com/image/1358661661_vlcsnap-2013-01-19-23h00m19s79.png&quot; rel=&quot;nofollow&quot; target=&quot;_NEW&quot;&gt;\nhttp://www.piczend.com/image/1358661661_vlcsnap-2013-01-19-23h00m19s79.png&lt;/a&gt;\n\n\n\nideo\nID                                       : 0\nFormat                                   : MPEG-4 Visual\nFormat profile                           : Advanced Simple@L5\nFormat settings, BVOP                    : 2\nFormat settings, QPel                    : No\nFormat settings, GMC                     : No warppoints\nFormat settings, Matrix                  : Default (H.263)\nMuxing mode                              : Packed bitstream\nCodec ID                                 : XVID\nCodec ID/Hint                            : XviD\nDuration                                 : 1h 56mn\nBit rate                                 : 1 223 Kbps\nWidth                                    : 720 pixels\nHeight                                   : 540 pixels\nDisplay aspect ratio                     : 4:3\nFrame rate                               : 30.000 fps\nColor space                              : YUV\nChroma subsampling                       : 4:2:0\nBit depth                                : 8 bits\nScan type                                : Progressive\nCompression mode                         : Lossy\nBits/(Pixel*Frame)                       : 0.105\nStream size                              : 1 019 MiB (73%)\nWriting library                          : XviD 1.2.1 (UTC 2008-12-04)\n\nAudio\nID                                       : 1\nFormat                                   : AC-3\nFormat/Info                              : Audio Coding 3\nMode extension                           : CM (complete main)\nFormat settings, Endianness              : Big\nCodec ID                                 : 2000\nDuration                                 : 1h 56mn\nBit rate mode                            : Constant\nBit rate                                 : 448 Kbps\nChannel(s)                               : 6 channels\nChannel positions                        : Front: L C R, Side: L R, LFE\nSampling rate                            : 48.0 KHz\nBit depth                                : 16 bits\nCompression mode                         : Lossy\nStream size                              : 373 MiB (27%)\nAlignment                                : Aligned on interleaves\nInterleave, duration                     : 32 ms (0.96 video frame)\n\n","torrent":{"xt":"urn:btih:c83f4a91a21c8b832733eefbdcf83033510ca41a","amp;dn":"300+DvdRip","amp;tr":["udp%3A%2F%2Ftracker.openbittorrent.com%3A80","udp%3A%2F%2Fopen.demonii.com%3A1337","udp%3A%2F%2Ftracker.coppersurfer.tk%3A6969","udp%3A%2F%2Fexodus.desync.com%3A6969"],"infoHash":"c83f4a91a21c8b832733eefbdcf83033510ca41a","infoHashBuffer":{"type":"Buffer","data":[200,63,74,145,162,28,139,131,39,51,238,251,220,248,48,51,81,12,164,26]},"announce":[],"urlList":[]}}